STARTFONT 2.1
COMMENT Available in 12 and 24 point.
COMMENT @@@@@@@@@@@@@@@@@@@@@@@@
COMMENT @......................@
COMMENT @......................@
COMMENT @......................@
COMMENT @.@@@@@@@..............@
COMMENT @..@@...@...........@..@
COMMENT @..@@..............@@..@
COMMENT @..@@..............@@..@
COMMENT @..@@@@...........@@@@.@
COMMENT @..@@...@@@..@@@@..@@..@
COMMENT @..@@..@@.@@.@@.@@.@@..@
COMMENT @..@@..@@.@@.@@.@@.@@..@
COMMENT @..@@..@@.@@.@@.@@.@@..@
COMMENT @.@@@@..@@@..@@.@@..@@.@
COMMENT @......................@
COMMENT @......................@
COMMENT @......................@
COMMENT @......................@
COMMENT @......................@
COMMENT @......................@
COMMENT @@@@@@@@@@@@@@@@@@@@@@@@
FONT --Cory-Regular-R-Normal--24-240-72-72-P-129-FONTSPECIFIC-0
SIZE 24 72 72
FONTBOUNDINGBOX 20 24 0 -6
METRICSSET 2
STARTPROPERTIES 19
FONT_ASCENT 18
FONT_DESCENT 6
PIXEL_SIZE 24
RESOLUTION_X 72
RESOLUTION_Y 72
POINT_SIZE 240
FACE_NAME "Cory Regular 24"
FOUNDRY ""
FAMILY_NAME "Cory"
WEIGHT_NAME "Regular"
RELATIVE_WEIGHT 50
SLANT "R"
SPACING "P"
SETWIDTH_NAME "Normal"
RELATIVE_SETWIDTH 50
ADD_STYLE_NAME ""
AVERAGE_WIDTH 129
CHARSET_REGISTRY "FONTSPECIFIC"
CHARSET_ENCODING "0"
ENDPROPERTIES
CHARS 95
STARTCHAR char20
ENCODING 32
SWIDTH 250 0
DWIDTH 6 0
BBX 0 0 6 18
VVECTOR 9 18
SWIDTH1 0 -1000
DWIDTH1 0 -24
BITMAP 
ENDCHAR
STARTCHAR char21
ENCODING 33
SWIDTH 292 0
DWIDTH 7 0
BBX 6 18 0 0
VVECTOR 3 18
SWIDTH1 0 -1000
DWIDTH1 0 -24
BITMAP 
60
F0
F0
F0
F0
F0
F8
FC
FC
FC
FC
78
00
00
78
FC
FC
78
ENDCHAR
STARTCHAR char22
ENCODING 34
SWIDTH 625 0
DWIDTH 15 0
BBX 14 8 0 10
VVECTOR 7 18
SWIDTH1 0 -1000
DWIDTH1 0 -24
BITMAP 
7878
FCFC
FCFC
7C7C
0C0C
0C0C
0C0C
0C0C
ENDCHAR
STARTCHAR char23
ENCODING 35
SWIDTH 625 0
DWIDTH 15 0
BBX 14 14 0 4
VVECTOR 7 18
SWIDTH1 0 -1000
DWIDTH1 0 -24
BITMAP 
1860
1860
1860
FFFC
FFFC
1860
1860
1860
1860
FFFC
FFFC
1860
1860
1860
ENDCHAR
STARTCHAR char24
ENCODING 36
SWIDTH 625 0
DWIDTH 15 0
BBX 14 22 0 -4
VVECTOR 7 18
SWIDTH1 0 -1000
DWIDTH1 0 -24
BITMAP 
0300
0300
0300
0300
7FF8
FFFC
F00C
F00C
F000
F000
FFF8
7FFC
00FC
00FC
C0FC
C0FC
FFFC
7FF8
0300
0300
0300
0300
ENDCHAR
STARTCHAR char25
ENCODING 37
SWIDTH 708 0
DWIDTH 17 0
BBX 16 18 0 0
VVECTOR 8 18
SWIDTH1 0 -1000
DWIDTH1 0 -24
BITMAP 
7806
FC06
FC06
7806
0006
0006
0006
0006
7FFF
FFFE
FC00
FC00
FC00
FC00
FC1E
FC3F
FC3F
781E
ENDCHAR
STARTCHAR char26
ENCODING 38
SWIDTH 750 0
DWIDTH 18 0
BBX 17 18 0 0
VVECTOR 8 18
SWIDTH1 0 -1000
DWIDTH1 0 -24
BITMAP 
1FC000
3FC000
3C0000
3C1800
3C1800
3C1800
7FFF80
FFFF80
FC1800
FC1800
FC1800
FC1800
FC1800
FC1800
FC1800
FC1800
FFF800
7FF800
ENDCHAR
STARTCHAR char27
ENCODING 39
SWIDTH 292 0
DWIDTH 7 0
BBX 6 6 0 12
VVECTOR 3 18
SWIDTH1 0 -1000
DWIDTH1 0 -24
BITMAP 
78
FC
FC
7C
0C
0C
ENDCHAR
STARTCHAR char28
ENCODING 40
SWIDTH 375 0
DWIDTH 9 0
BBX 8 22 0 -4
VVECTOR 4 18
SWIDTH1 0 -1000
DWIDTH1 0 -24
BITMAP 
7F
FF
E0
E0
E0
E0
E0
E0
F0
F8
F8
F8
F8
F8
F8
F8
F8
F8
F8
F8
FF
7F
ENDCHAR
STARTCHAR char29
ENCODING 41
SWIDTH 375 0
DWIDTH 9 0
BBX 8 22 0 -4
VVECTOR 4 18
SWIDTH1 0 -1000
DWIDTH1 0 -24
BITMAP 
FE
FF
0F
0F
0F
0F
0F
0F
1F
3F
3F
3F
3F
3F
3F
3F
3F
3F
3F
3F
FF
FE
ENDCHAR
STARTCHAR char2A
ENCODING 42
SWIDTH 625 0
DWIDTH 15 0
BBX 14 10 0 8
VVECTOR 7 18
SWIDTH1 0 -1000
DWIDTH1 0 -24
BITMAP 
F33C
F33C
F33C
F33C
3FF0
3FF0
F33C
F33C
F33C
F33C
ENDCHAR
STARTCHAR char2B
ENCODING 43
SWIDTH 625 0
DWIDTH 15 0
BBX 14 14 0 2
VVECTOR 7 18
SWIDTH1 0 -1000
DWIDTH1 0 -24
BITMAP 
0300
0300
0300
0300
0300
0300
FFFC
FFFC
0300
0300
0300
0300
0300
0300
ENDCHAR
STARTCHAR char2C
ENCODING 44
SWIDTH 292 0
DWIDTH 7 0
BBX 6 8 0 -4
VVECTOR 3 18
SWIDTH1 0 -1000
DWIDTH1 0 -24
BITMAP 
78
FC
FC
7C
0C
0C
0C
0C
ENDCHAR
STARTCHAR char2D
ENCODING 45
SWIDTH 625 0
DWIDTH 15 0
BBX 14 2 0 8
VVECTOR 7 18
SWIDTH1 0 -1000
DWIDTH1 0 -24
BITMAP 
FFFC
FFFC
ENDCHAR
STARTCHAR char2E
ENCODING 46
SWIDTH 292 0
DWIDTH 7 0
BBX 6 4 0 0
VVECTOR 3 18
SWIDTH1 0 -1000
DWIDTH1 0 -24
BITMAP 
78
FC
FC
78
ENDCHAR
STARTCHAR char2F
ENCODING 47
SWIDTH 708 0
DWIDTH 17 0
BBX 16 18 0 0
VVECTOR 8 18
SWIDTH1 0 -1000
DWIDTH1 0 -24
BITMAP 
0003
0003
0003
0003
0003
0003
0003
0003
7FFF
FFFE
FC00
FC00
FC00
FC00
FC00
FC00
FC00
7800
ENDCHAR
STARTCHAR char30
ENCODING 48
SWIDTH 625 0
DWIDTH 15 0
BBX 14 18 0 0
VVECTOR 7 18
SWIDTH1 0 -1000
DWIDTH1 0 -24
BITMAP 
7FF8
FFFC
C03C
C03C
C03C
C03C
C0FC
C0FC
C0FC
C0FC
C0FC
C0FC
C0FC
C0FC
C0FC
C0FC
FFFC
7FF8
ENDCHAR
STARTCHAR char31
ENCODING 49
SWIDTH 292 0
DWIDTH 7 0
BBX 6 18 0 0
VVECTOR 3 18
SWIDTH1 0 -1000
DWIDTH1 0 -24
BITMAP 
18
3C
3C
3C
3C
3C
FC
FC
FC
FC
FC
FC
FC
FC
FC
FC
FC
78
ENDCHAR
STARTCHAR char32
ENCODING 50
SWIDTH 625 0
DWIDTH 15 0
BBX 14 18 0 0
VVECTOR 7 18
SWIDTH1 0 -1000
DWIDTH1 0 -24
BITMAP 
7FF8
FFFC
C03C
C03C
C03C
C03C
003C
003C
003C
003C
7FFC
FFF8
FC00
FC00
FC0C
FC0C
FFFC
7FF8
ENDCHAR
STARTCHAR char33
ENCODING 51
SWIDTH 625 0
DWIDTH 15 0
BBX 14 18 0 0
VVECTOR 7 18
SWIDTH1 0 -1000
DWIDTH1 0 -24
BITMAP 
7FE0
FFF0
C0F0
C0F0
00F0
00F0
3FF8
3FFC
00FC
00FC
00FC
00FC
C0FC
C0FC
C0FC
C0FC
FFFC
7FF8
ENDCHAR
STARTCHAR char34
ENCODING 52
SWIDTH 708 0
DWIDTH 17 0
BBX 16 18 0 0
VVECTOR 8 18
SWIDTH1 0 -1000
DWIDTH1 0 -24
BITMAP 
4018
C03C
C03C
C03C
C03C
C03C
C03C
C03C
C03C
C03C
FFFF
7FFF
00FC
00FC
00FC
00FC
00FC
0078
ENDCHAR
STARTCHAR char35
ENCODING 53
SWIDTH 625 0
DWIDTH 15 0
BBX 14 18 0 0
VVECTOR 7 18
SWIDTH1 0 -1000
DWIDTH1 0 -24
BITMAP 
7FFC
FFFC
F000
F000
F000
F000
FFF8
FFFC
00FC
00FC
00FC
00FC
C0FC
C0FC
C0FC
C0FC
FFFC
7FF8
ENDCHAR
STARTCHAR char36
ENCODING 54
SWIDTH 625 0
DWIDTH 15 0
BBX 14 18 0 0
VVECTOR 7 18
SWIDTH1 0 -1000
DWIDTH1 0 -24
BITMAP 
7FF8
FFFC
C03C
C03C
C000
C000
FFF8
FFFC
C0FC
C0FC
C0FC
C0FC
C0FC
C0FC
C0FC
C0FC
FFFC
7FF8
ENDCHAR
STARTCHAR char37
ENCODING 55
SWIDTH 625 0
DWIDTH 15 0
BBX 14 18 0 0
VVECTOR 7 18
SWIDTH1 0 -1000
DWIDTH1 0 -24
BITMAP 
7FF8
FFFC
C03C
C03C
003C
003C
007C
00FC
00FC
00FC
00FC
00FC
00FC
00FC
00FC
00FC
00FC
0078
ENDCHAR
STARTCHAR char38
ENCODING 56
SWIDTH 625 0
DWIDTH 15 0
BBX 14 18 0 0
VVECTOR 7 18
SWIDTH1 0 -1000
DWIDTH1 0 -24
BITMAP 
1FE0
3FF0
30F0
30F0
30F0
30F0
7FF8
FFFC
C0FC
C0FC
C0FC
C0FC
C0FC
C0FC
C0FC
C0FC
FFFC
7FF8
ENDCHAR
STARTCHAR char39
ENCODING 57
SWIDTH 625 0
DWIDTH 15 0
BBX 14 18 0 0
VVECTOR 7 18
SWIDTH1 0 -1000
DWIDTH1 0 -24
BITMAP 
7FF8
FFFC
C03C
C03C
C03C
C03C
C03C
C03C
C03C
C03C
FFFC
7FFC
00FC
00FC
00FC
00FC
00FC
0078
ENDCHAR
STARTCHAR char3A
ENCODING 58
SWIDTH 292 0
DWIDTH 7 0
BBX 6 14 0 0
VVECTOR 3 18
SWIDTH1 0 -1000
DWIDTH1 0 -24
BITMAP 
78
FC
FC
78
00
00
00
00
00
00
78
FC
FC
78
ENDCHAR
STARTCHAR char3B
ENCODING 59
SWIDTH 292 0
DWIDTH 7 0
BBX 6 18 0 -4
VVECTOR 3 18
SWIDTH1 0 -1000
DWIDTH1 0 -24
BITMAP 
78
FC
FC
78
00
00
00
00
00
00
78
FC
FC
7C
0C
0C
0C
0C
ENDCHAR
STARTCHAR char3C
ENCODING 60
SWIDTH 583 0
DWIDTH 14 0
BBX 13 18 0 0
VVECTOR 6 18
SWIDTH1 0 -1000
DWIDTH1 0 -24
BITMAP 
00F8
01F0
03E0
07C0
0F80
1F00
3E00
7C00
F800
F800
7C00
3E00
1F00
0F80
07C0
03E0
01F0
00F8
ENDCHAR
STARTCHAR char3D
ENCODING 61
SWIDTH 542 0
DWIDTH 13 0
BBX 12 8 0 4
VVECTOR 6 18
SWIDTH1 0 -1000
DWIDTH1 0 -24
BITMAP 
FFF0
FFF0
0000
0000
0000
0000
FFF0
FFF0
ENDCHAR
STARTCHAR char3E
ENCODING 62
SWIDTH 583 0
DWIDTH 14 0
BBX 13 18 0 0
VVECTOR 6 18
SWIDTH1 0 -1000
DWIDTH1 0 -24
BITMAP 
F800
7C00
3E00
1F00
0F80
07C0
03E0
01F0
00F8
00F8
01F0
03E0
07C0
0F80
1F00
3E00
7C00
F800
ENDCHAR
STARTCHAR char3F
ENCODING 63
SWIDTH 625 0
DWIDTH 15 0
BBX 14 18 0 0
VVECTOR 7 18
SWIDTH1 0 -1000
DWIDTH1 0 -24
BITMAP 
7FF8
FFFC
C03C
C03C
003C
003C
1FFC
3FF8
3F00
3F00
3F00
1E00
0000
0000
1E00
3F00
3F00
1E00
ENDCHAR
STARTCHAR char40
ENCODING 64
SWIDTH 792 0
DWIDTH 19 0
BBX 18 18 0 0
VVECTOR 9 18
SWIDTH1 0 -1000
DWIDTH1 0 -24
BITMAP 
7FFF80
FFFFC0
C000C0
C000C0
C1F8C0
C3FCC0
C30CC0
C30CC0
E30CC0
F30CC0
F30CC0
F30CC0
F3FFC0
F1FF00
F00000
F00000
FFFFC0
7FFFC0
ENDCHAR
STARTCHAR char41
ENCODING 65
SWIDTH 625 0
DWIDTH 15 0
BBX 14 18 0 0
VVECTOR 7 18
SWIDTH1 0 -1000
DWIDTH1 0 -24
BITMAP 
1FE0
3FF0
3C30
3C30
3C30
3C30
7FF8
FFFC
FC0C
FC0C
FC0C
FC0C
FC0C
FC0C
FC0C
FC0C
FC0C
780C
ENDCHAR
STARTCHAR char42
ENCODING 66
SWIDTH 625 0
DWIDTH 15 0
BBX 14 18 0 0
VVECTOR 7 18
SWIDTH1 0 -1000
DWIDTH1 0 -24
BITMAP 
7FE0
FFF0
F030
F030
F030
F030
FFF8
FFFC
FC0C
FC0C
FC0C
FC0C
FC0C
FC0C
FC0C
FC0C
FFFC
7FF8
ENDCHAR
STARTCHAR char43
ENCODING 67
SWIDTH 625 0
DWIDTH 15 0
BBX 14 18 0 0
VVECTOR 7 18
SWIDTH1 0 -1000
DWIDTH1 0 -24
BITMAP 
7FF8
FFFC
E00C
E00C
E000
E000
F000
F800
F800
F800
F800
F800
F800
F800
F80C
F80C
FFFC
7FF8
ENDCHAR
STARTCHAR char44
ENCODING 68
SWIDTH 625 0
DWIDTH 15 0
BBX 14 18 0 0
VVECTOR 7 18
SWIDTH1 0 -1000
DWIDTH1 0 -24
BITMAP 
7FF8
FFFC
F00C
F00C
F00C
F00C
F80C
FC0C
FC0C
FC0C
FC0C
FC0C
FC0C
FC0C
FC0C
FC0C
FFFC
7FF8
ENDCHAR
STARTCHAR char45
ENCODING 69
SWIDTH 542 0
DWIDTH 13 0
BBX 12 18 0 0
VVECTOR 6 18
SWIDTH1 0 -1000
DWIDTH1 0 -24
BITMAP 
7FF0
FFF0
F000
F000
F000
F000
FFF0
FFF0
FC00
FC00
FC00
FC00
FC00
FC00
FC00
FC00
FFF0
7FF0
ENDCHAR
STARTCHAR char46
ENCODING 70
SWIDTH 542 0
DWIDTH 13 0
BBX 12 18 0 0
VVECTOR 6 18
SWIDTH1 0 -1000
DWIDTH1 0 -24
BITMAP 
7FF0
FFF0
F000
F000
F000
F000
FFF0
FFF0
FC00
FC00
FC00
FC00
FC00
FC00
FC00
FC00
FC00
7800
ENDCHAR
STARTCHAR char47
ENCODING 71
SWIDTH 625 0
DWIDTH 15 0
BBX 14 18 0 0
VVECTOR 7 18
SWIDTH1 0 -1000
DWIDTH1 0 -24
BITMAP 
7FF8
FFFC
F00C
F00C
F000
F000
F8F8
FCFC
FC0C
FC0C
FC0C
FC0C
FC0C
FC0C
FC0C
FC0C
FFFC
7FF8
ENDCHAR
STARTCHAR char48
ENCODING 72
SWIDTH 625 0
DWIDTH 15 0
BBX 14 18 0 0
VVECTOR 7 18
SWIDTH1 0 -1000
DWIDTH1 0 -24
BITMAP 
600C
F00C
F00C
F00C
F00C
F00C
FFFC
FFFC
FC0C
FC0C
FC0C
FC0C
FC0C
FC0C
FC0C
FC0C
FC0C
780C
ENDCHAR
STARTCHAR char49
ENCODING 73
SWIDTH 292 0
DWIDTH 7 0
BBX 6 18 0 0
VVECTOR 3 18
SWIDTH1 0 -1000
DWIDTH1 0 -24
BITMAP 
60
F0
F0
F0
F0
F0
F8
FC
FC
FC
FC
FC
FC
FC
FC
FC
FC
78
ENDCHAR
STARTCHAR char4A
ENCODING 74
SWIDTH 625 0
DWIDTH 15 0
BBX 14 18 0 0
VVECTOR 7 18
SWIDTH1 0 -1000
DWIDTH1 0 -24
BITMAP 
0060
00F0
00F0
00F0
00F0
00F0
00F8
00FC
00FC
00FC
00FC
00FC
C0FC
C0FC
C0FC
C0FC
FFFC
7FF8
ENDCHAR
STARTCHAR char4B
ENCODING 75
SWIDTH 625 0
DWIDTH 15 0
BBX 14 18 0 0
VVECTOR 7 18
SWIDTH1 0 -1000
DWIDTH1 0 -24
BITMAP 
6030
F030
F030
F030
F030
F030
FFF8
FFFC
FC0C
FC0C
FC0C
FC0C
FC0C
FC0C
FC0C
FC0C
FC0C
780C
ENDCHAR
STARTCHAR char4C
ENCODING 76
SWIDTH 542 0
DWIDTH 13 0
BBX 12 18 0 0
VVECTOR 6 18
SWIDTH1 0 -1000
DWIDTH1 0 -24
BITMAP 
6000
F000
F000
F000
F000
F000
F800
FC00
FC00
FC00
FC00
FC00
FC00
FC00
FC00
FC00
FFF0
7FF0
ENDCHAR
STARTCHAR char4D
ENCODING 77
SWIDTH 875 0
DWIDTH 21 0
BBX 20 18 0 0
VVECTOR 10 18
SWIDTH1 0 -1000
DWIDTH1 0 -24
BITMAP 
7FCFE0
FFFFF0
F070F0
F030F0
F030F0
F030F0
F830F0
FC30F0
FC30F0
FC30F0
FC30F0
FC30F0
FC30F0
FC30F0
FC30F0
FC30F0
FC30F0
783060
ENDCHAR
STARTCHAR char4E
ENCODING 78
SWIDTH 625 0
DWIDTH 15 0
BBX 14 18 0 0
VVECTOR 7 18
SWIDTH1 0 -1000
DWIDTH1 0 -24
BITMAP 
7FF8
FFFC
F00C
F00C
F00C
F00C
F80C
FC0C
FC0C
FC0C
FC0C
FC0C
FC0C
FC0C
FC0C
FC0C
FC0C
780C
ENDCHAR
STARTCHAR char4F
ENCODING 79
SWIDTH 625 0
DWIDTH 15 0
BBX 14 18 0 0
VVECTOR 7 18
SWIDTH1 0 -1000
DWIDTH1 0 -24
BITMAP 
7FF8
FFFC
C0FC
C0FC
C0FC
C07C
C03C
C03C
C03C
C03C
C03C
C03C
C03C
C03C
C03C
C03C
FFFC
7FF8
ENDCHAR
STARTCHAR char50
ENCODING 80
SWIDTH 542 0
DWIDTH 13 0
BBX 12 18 0 0
VVECTOR 6 18
SWIDTH1 0 -1000
DWIDTH1 0 -24
BITMAP 
7FE0
FFF0
F030
F030
F030
F030
FFF0
FFE0
FC00
FC00
FC00
FC00
FC00
FC00
FC00
FC00
FC00
7800
ENDCHAR
STARTCHAR char51
ENCODING 81
SWIDTH 625 0
DWIDTH 15 0
BBX 14 18 0 0
VVECTOR 7 18
SWIDTH1 0 -1000
DWIDTH1 0 -24
BITMAP 
7FF8
FFFC
C03C
C03C
C03C
C03C
C03C
C03C
C03C
C03C
C03C
C03C
C1FC
C3FC
C3FC
C3FC
FFFC
7FF8
ENDCHAR
STARTCHAR char52
ENCODING 82
SWIDTH 625 0
DWIDTH 15 0
BBX 14 18 0 0
VVECTOR 7 18
SWIDTH1 0 -1000
DWIDTH1 0 -24
BITMAP 
7FE0
FFF0
F030
F030
F030
F030
FFF8
FFFC
FC0C
FC0C
FC0C
FC0C
FC0C
FC0C
FC0C
FC0C
FC0C
780C
ENDCHAR
STARTCHAR char53
ENCODING 83
SWIDTH 625 0
DWIDTH 15 0
BBX 14 18 0 0
VVECTOR 7 18
SWIDTH1 0 -1000
DWIDTH1 0 -24
BITMAP 
7FF8
FFFC
F00C
F00C
F000
F000
FFF8
7FFC
00FC
00FC
00FC
00FC
00FC
00FC
C0FC
C0FC
FFFC
7FF8
ENDCHAR
STARTCHAR char54
ENCODING 84
SWIDTH 542 0
DWIDTH 13 0
BBX 12 18 0 0
VVECTOR 6 18
SWIDTH1 0 -1000
DWIDTH1 0 -24
BITMAP 
FFF0
FFF0
0F00
0F00
0F00
0F00
0F80
0FC0
0FC0
0FC0
0FC0
0FC0
0FC0
0FC0
0FC0
0FC0
0FC0
0780
ENDCHAR
STARTCHAR char55
ENCODING 85
SWIDTH 625 0
DWIDTH 15 0
BBX 14 18 0 0
VVECTOR 7 18
SWIDTH1 0 -1000
DWIDTH1 0 -24
BITMAP 
600C
F00C
F00C
F00C
F00C
F00C
F80C
FC0C
FC0C
FC0C
FC0C
FC0C
FC0C
FC0C
FC0C
FE0C
FFFC
7FF8
ENDCHAR
STARTCHAR char56
ENCODING 86
SWIDTH 625 0
DWIDTH 15 0
BBX 14 18 0 0
VVECTOR 7 18
SWIDTH1 0 -1000
DWIDTH1 0 -24
BITMAP 
780C
FC0C
FC0C
FC0C
FC0C
FC0C
FC0C
FC0C
FC0C
FC0C
FC1C
7C38
3C30
3C30
3C30
3C30
3FF0
1FE0
ENDCHAR
STARTCHAR char57
ENCODING 87
SWIDTH 875 0
DWIDTH 21 0
BBX 20 18 0 0
VVECTOR 10 18
SWIDTH1 0 -1000
DWIDTH1 0 -24
BITMAP 
603060
F030F0
F030F0
F030F0
F030F0
F030F0
F830F0
FC30F0
FC30F0
FC30F0
FC30F0
FC30F0
FC30F0
FC30F0
FC30F0
FC30F0
FFFFF0
7FCFE0
ENDCHAR
STARTCHAR char58
ENCODING 88
SWIDTH 625 0
DWIDTH 15 0
BBX 14 18 0 0
VVECTOR 7 18
SWIDTH1 0 -1000
DWIDTH1 0 -24
BITMAP 
600C
F00C
F00C
F00C
F00C
F00C
7FF8
7FF8
FC0C
FC0C
FC0C
FC0C
FC0C
FC0C
FC0C
FC0C
FC0C
780C
ENDCHAR
STARTCHAR char59
ENCODING 89
SWIDTH 625 0
DWIDTH 15 0
BBX 14 18 0 0
VVECTOR 7 18
SWIDTH1 0 -1000
DWIDTH1 0 -24
BITMAP 
C00C
C00C
C00C
C00C
C00C
C00C
FFFC
7FF8
0FC0
0FC0
0FC0
0FC0
0FC0
0FC0
0FC0
0FC0
0FC0
0780
ENDCHAR
STARTCHAR char5A
ENCODING 90
SWIDTH 625 0
DWIDTH 15 0
BBX 14 18 0 0
VVECTOR 7 18
SWIDTH1 0 -1000
DWIDTH1 0 -24
BITMAP 
7FF8
FFFC
C03C
C03C
003C
003C
7FFC
FFF8
FC00
FC00
FC00
FC00
FC0C
FC0C
FC0C
FC0C
FFFC
7FF8
ENDCHAR
STARTCHAR char5B
ENCODING 91
SWIDTH 292 0
DWIDTH 7 0
BBX 6 24 0 -6
VVECTOR 3 18
SWIDTH1 0 -1000
DWIDTH1 0 -24
BITMAP 
7C
FC
C0
C0
C0
C0
C0
C0
C0
C0
C0
C0
C0
C0
C0
C0
C0
C0
C0
C0
C0
C0
FC
7C
ENDCHAR
STARTCHAR char5C
ENCODING 92
SWIDTH 708 0
DWIDTH 17 0
BBX 16 18 0 0
VVECTOR 8 18
SWIDTH1 0 -1000
DWIDTH1 0 -24
BITMAP 
C000
C000
C000
C000
C000
C000
C000
C000
FFFE
7FFF
003F
003F
003F
003F
003F
003F
003F
003F
ENDCHAR
STARTCHAR char5D
ENCODING 93
SWIDTH 292 0
DWIDTH 7 0
BBX 6 24 0 -6
VVECTOR 3 18
SWIDTH1 0 -1000
DWIDTH1 0 -24
BITMAP 
F8
FC
0C
0C
0C
0C
0C
0C
0C
0C
0C
0C
0C
0C
0C
0C
0C
0C
0C
0C
0C
0C
FC
F8
ENDCHAR
STARTCHAR char5E
ENCODING 94
SWIDTH 375 0
DWIDTH 9 0
BBX 8 5 0 13
VVECTOR 4 18
SWIDTH1 0 -1000
DWIDTH1 0 -24
BITMAP 
7E
C3
C3
C3
C3
ENDCHAR
STARTCHAR char5F
ENCODING 95
SWIDTH 667 0
DWIDTH 16 0
BBX 16 2 0 -4
VVECTOR 8 18
SWIDTH1 0 -1000
DWIDTH1 0 -24
BITMAP 
FFFF
FFFF
ENDCHAR
STARTCHAR char60
ENCODING 96
SWIDTH 292 0
DWIDTH 7 0
BBX 6 6 0 12
VVECTOR 3 18
SWIDTH1 0 -1000
DWIDTH1 0 -24
BITMAP 
78
FC
FC
7C
0C
0C
ENDCHAR
STARTCHAR char61
ENCODING 97
SWIDTH 542 0
DWIDTH 13 0
BBX 12 14 0 0
VVECTOR 6 18
SWIDTH1 0 -1000
DWIDTH1 0 -24
BITMAP 
7F80
FFC0
C0C0
C0C0
00C0
00C0
7FE0
FFF0
F0F0
F0F0
F0F0
F0F0
FFF0
7FE0
ENDCHAR
STARTCHAR char62
ENCODING 98
SWIDTH 542 0
DWIDTH 13 0
BBX 12 18 0 0
VVECTOR 6 18
SWIDTH1 0 -1000
DWIDTH1 0 -24
BITMAP 
6000
F000
F000
F000
FFE0
FFF0
F030
F030
F030
F030
F830
FC30
FC30
FC30
FC30
FC30
FFF0
7FE0
ENDCHAR
STARTCHAR char63
ENCODING 99
SWIDTH 542 0
DWIDTH 13 0
BBX 12 14 0 0
VVECTOR 6 18
SWIDTH1 0 -1000
DWIDTH1 0 -24
BITMAP 
7FE0
FFF0
F030
F030
F000
F000
F800
FC00
FC00
FC00
FC30
FC30
FFF0
7FE0
ENDCHAR
STARTCHAR char64
ENCODING 100
SWIDTH 542 0
DWIDTH 13 0
BBX 12 18 0 0
VVECTOR 6 18
SWIDTH1 0 -1000
DWIDTH1 0 -24
BITMAP 
0060
00F0
00F0
00F0
7FF0
FFF0
C0F0
C0F0
C0F0
C0F0
C1F0
C3F0
C3F0
C3F0
C3F0
C3F0
FFF0
7FE0
ENDCHAR
STARTCHAR char65
ENCODING 101
SWIDTH 542 0
DWIDTH 13 0
BBX 12 14 0 0
VVECTOR 6 18
SWIDTH1 0 -1000
DWIDTH1 0 -24
BITMAP 
7FE0
FFF0
F030
F030
F030
F030
FFF0
FFE0
FC00
FC00
FC30
FC30
FFF0
7FE0
ENDCHAR
STARTCHAR char66
ENCODING 102
SWIDTH 375 0
DWIDTH 9 0
BBX 8 18 0 0
VVECTOR 4 18
SWIDTH1 0 -1000
DWIDTH1 0 -24
BITMAP 
1F
3F
30
30
FF
FF
3C
3C
3C
3C
3E
3F
3F
3F
3F
3F
3F
1E
ENDCHAR
STARTCHAR char67
ENCODING 103
SWIDTH 542 0
DWIDTH 13 0
BBX 12 20 0 -6
VVECTOR 6 18
SWIDTH1 0 -1000
DWIDTH1 0 -24
BITMAP 
7FE0
FFF0
F030
F030
F030
F030
F830
FC30
FC30
FC30
FC30
FC30
FFF0
7FF0
0030
0030
0030
0030
FFF0
FFE0
ENDCHAR
STARTCHAR char68
ENCODING 104
SWIDTH 542 0
DWIDTH 13 0
BBX 12 18 0 0
VVECTOR 6 18
SWIDTH1 0 -1000
DWIDTH1 0 -24
BITMAP 
6000
F000
F000
F000
FFE0
FFF0
F030
F030
F030
F030
F830
FC30
FC30
FC30
FC30
FC30
FC30
7830
ENDCHAR
STARTCHAR char69
ENCODING 105
SWIDTH 250 0
DWIDTH 6 0
BBX 5 18 0 0
VVECTOR 2 18
SWIDTH1 0 -1000
DWIDTH1 0 -24
BITMAP 
70
F8
F8
70
00
00
60
60
60
60
70
78
78
78
78
78
78
30
ENDCHAR
STARTCHAR char6A
ENCODING 106
SWIDTH 250 0
DWIDTH 6 0
BBX 5 24 0 -6
VVECTOR 2 18
SWIDTH1 0 -1000
DWIDTH1 0 -24
BITMAP 
70
F8
F8
70
00
00
60
60
60
60
70
78
78
78
78
78
78
38
18
18
18
18
F8
F0
ENDCHAR
STARTCHAR char6B
ENCODING 107
SWIDTH 542 0
DWIDTH 13 0
BBX 12 18 0 0
VVECTOR 6 18
SWIDTH1 0 -1000
DWIDTH1 0 -24
BITMAP 
6000
F000
F000
F000
F0C0
F0C0
F0C0
F0C0
F0C0
F0C0
FFE0
FFF0
FC30
FC30
FC30
FC30
FC30
7830
ENDCHAR
STARTCHAR char6C
ENCODING 108
SWIDTH 292 0
DWIDTH 7 0
BBX 6 18 0 0
VVECTOR 3 18
SWIDTH1 0 -1000
DWIDTH1 0 -24
BITMAP 
60
F0
F0
F0
F0
F0
F0
F0
F0
F0
F8
FC
FC
FC
FC
FC
FC
78
ENDCHAR
STARTCHAR char6D
ENCODING 109
SWIDTH 792 0
DWIDTH 19 0
BBX 18 14 0 0
VVECTOR 9 18
SWIDTH1 0 -1000
DWIDTH1 0 -24
BITMAP 
7FFF80
FFFFC0
F0F0C0
F0F0C0
F0F0C0
F0F0C0
F8F8C0
FCFCC0
FCFCC0
FCFCC0
FCFCC0
FCFCC0
FCFCC0
7878C0
ENDCHAR
STARTCHAR char6E
ENCODING 110
SWIDTH 542 0
DWIDTH 13 0
BBX 12 14 0 0
VVECTOR 6 18
SWIDTH1 0 -1000
DWIDTH1 0 -24
BITMAP 
7FE0
FFF0
F030
F030
F030
F030
F830
FC30
FC30
FC30
FC30
FC30
FC30
7830
ENDCHAR
STARTCHAR char6F
ENCODING 111
SWIDTH 542 0
DWIDTH 13 0
BBX 12 14 0 0
VVECTOR 6 18
SWIDTH1 0 -1000
DWIDTH1 0 -24
BITMAP 
7FE0
FFF0
F030
F030
F030
F030
F830
FC30
FC30
FC30
FC30
FC30
FFF0
7FE0
ENDCHAR
STARTCHAR char70
ENCODING 112
SWIDTH 542 0
DWIDTH 13 0
BBX 12 20 0 -6
VVECTOR 6 18
SWIDTH1 0 -1000
DWIDTH1 0 -24
BITMAP 
7FE0
FFF0
F030
F030
F030
F030
F830
FC30
FC30
FC30
FC30
FC30
FFF0
FFE0
C000
C000
C000
C000
C000
C000
ENDCHAR
STARTCHAR char71
ENCODING 113
SWIDTH 542 0
DWIDTH 13 0
BBX 12 20 0 -6
VVECTOR 6 18
SWIDTH1 0 -1000
DWIDTH1 0 -24
BITMAP 
7FE0
FFF0
F030
F030
F030
F030
F830
FC30
FC30
FC30
FC30
FC30
FFF0
7FF0
0030
0030
0030
0030
0030
0030
ENDCHAR
STARTCHAR char72
ENCODING 114
SWIDTH 458 0
DWIDTH 11 0
BBX 10 14 0 0
VVECTOR 5 18
SWIDTH1 0 -1000
DWIDTH1 0 -24
BITMAP 
7FC0
FFC0
F000
F000
F000
F000
F800
FC00
FC00
FC00
FC00
FC00
FC00
7800
ENDCHAR
STARTCHAR char73
ENCODING 115
SWIDTH 542 0
DWIDTH 13 0
BBX 10 14 1 0
VVECTOR 6 18
SWIDTH1 0 -1000
DWIDTH1 0 -24
BITMAP 
7F80
FFC0
F0C0
F0C0
F000
F000
FF80
7FC0
03C0
03C0
C3C0
C3C0
FFC0
7F80
ENDCHAR
STARTCHAR char74
ENCODING 116
SWIDTH 375 0
DWIDTH 9 0
BBX 8 18 0 0
VVECTOR 4 18
SWIDTH1 0 -1000
DWIDTH1 0 -24
BITMAP 
30
30
30
30
FF
FF
3C
3C
3C
3C
3E
3F
3F
3F
3F
3F
3F
1E
ENDCHAR
STARTCHAR char75
ENCODING 117
SWIDTH 583 0
DWIDTH 14 0
BBX 13 14 0 0
VVECTOR 6 18
SWIDTH1 0 -1000
DWIDTH1 0 -24
BITMAP 
6018
F018
F018
F018
F018
F018
FC18
FC18
FC18
FC18
FC18
FC18
FFF8
7FF0
ENDCHAR
STARTCHAR char76
ENCODING 118
SWIDTH 542 0
DWIDTH 13 0
BBX 12 14 0 0
VVECTOR 6 18
SWIDTH1 0 -1000
DWIDTH1 0 -24
BITMAP 
7830
FC30
FC30
FC30
FC30
FC30
FC30
7C30
3C70
3CE0
3CC0
3CC0
3FC0
1F80
ENDCHAR
STARTCHAR char77
ENCODING 119
SWIDTH 792 0
DWIDTH 19 0
BBX 18 14 0 0
VVECTOR 9 18
SWIDTH1 0 -1000
DWIDTH1 0 -24
BITMAP 
6060C0
F0F0C0
F0F0C0
F0F0C0
F0F0C0
F0F0C0
F8FCC0
FCFCC0
FCFCC0
FCFCC0
FCFCC0
FCFCC0
FFFFC0
7FFF80
ENDCHAR
STARTCHAR char78
ENCODING 120
SWIDTH 542 0
DWIDTH 13 0
BBX 12 14 0 0
VVECTOR 6 18
SWIDTH1 0 -1000
DWIDTH1 0 -24
BITMAP 
6030
F030
F030
F030
F030
F030
7FE0
7FE0
FC30
FC30
FC30
FC30
FC30
7830
ENDCHAR
STARTCHAR char79
ENCODING 121
SWIDTH 542 0
DWIDTH 13 0
BBX 12 20 0 -6
VVECTOR 6 18
SWIDTH1 0 -1000
DWIDTH1 0 -24
BITMAP 
7830
FC30
FC30
FC30
FC30
FC30
FC30
F830
F030
F030
F030
F030
FFF0
7FF0
0030
0030
0030
0030
FFF0
FFE0
ENDCHAR
STARTCHAR char7A
ENCODING 122
SWIDTH 542 0
DWIDTH 13 0
BBX 12 14 0 0
VVECTOR 6 18
SWIDTH1 0 -1000
DWIDTH1 0 -24
BITMAP 
7FE0
FFF0
C0F0
C0F0
00F0
00F0
7FF0
FFE0
FC00
FC00
FC30
FC30
FFF0
7FE0
ENDCHAR
STARTCHAR char7B
ENCODING 123
SWIDTH 375 0
DWIDTH 9 0
BBX 8 22 0 -4
VVECTOR 4 18
SWIDTH1 0 -1000
DWIDTH1 0 -24
BITMAP 
1F
3C
3C
3C
3C
3C
3C
3C
3C
3C
F8
F8
3C
3C
3C
3C
3C
3C
3C
3C
3C
1F
ENDCHAR
STARTCHAR char7C
ENCODING 124
SWIDTH 125 0
DWIDTH 3 0
BBX 2 22 0 -4
VVECTOR 1 18
SWIDTH1 0 -1000
DWIDTH1 0 -24
BITMAP 
C0
C0
C0
C0
C0
C0
C0
C0
C0
C0
C0
C0
C0
C0
C0
C0
C0
C0
C0
C0
C0
C0
ENDCHAR
STARTCHAR char7D
ENCODING 125
SWIDTH 375 0
DWIDTH 9 0
BBX 8 22 0 -4
VVECTOR 4 18
SWIDTH1 0 -1000
DWIDTH1 0 -24
BITMAP 
F8
3C
3C
3C
3C
3C
3C
3C
3C
3C
1F
1F
3C
3C
3C
3C
3C
3C
3C
3C
3C
F8
ENDCHAR
STARTCHAR char7E
ENCODING 126
SWIDTH 542 0
DWIDTH 13 0
BBX 12 4 0 14
VVECTOR 6 18
SWIDTH1 0 -1000
DWIDTH1 0 -24
BITMAP 
7E30
FF30
CFF0
C7E0
ENDCHAR
ENDFONT
